<svg width="62" height="70" viewBox="0 0 62 70" fill="none" xmlns="http://www.w3.org/2000/svg">
<g clip-path="url(#clip0_10025_108738)">
<path d="M54.6875 8.75L48.125 8.75L48.125 1.64063C48.125 0.738281 47.3867 0 46.4844 0L45.3906 0C44.4883 0 43.75 0.738281 43.75 1.64063L43.75 8.75L17.5 8.75L17.5 1.64063C17.5 0.738281 16.7617 0 15.8594 0L14.7656 0C13.8633 0 13.125 0.738281 13.125 1.64063L13.125 8.75L6.5625 8.75C2.93945 8.75 0 11.6895 0 15.3125L0 63.4375C0 67.0605 2.93945 70 6.5625 70L54.6875 70C58.3105 70 61.25 67.0605 61.25 63.4375L61.25 15.3125C61.25 11.6895 58.3105 8.75 54.6875 8.75ZM6.5625 13.125L54.6875 13.125C55.8906 13.125 56.875 14.1094 56.875 15.3125L56.875 21.875L4.375 21.875L4.375 15.3125C4.375 14.1094 5.35938 13.125 6.5625 13.125ZM54.6875 65.625L6.5625 65.625C5.35938 65.625 4.375 64.6406 4.375 63.4375L4.375 26.25L56.875 26.25L56.875 63.4375C56.875 64.6406 55.8906 65.625 54.6875 65.625ZM20.2344 43.75L14.7656 43.75C13.8633 43.75 13.125 43.0117 13.125 42.1094L13.125 36.6406C13.125 35.7383 13.8633 35 14.7656 35L20.2344 35C21.1367 35 21.875 35.7383 21.875 36.6406L21.875 42.1094C21.875 43.0117 21.1367 43.75 20.2344 43.75ZM33.3594 43.75H27.8906C26.9883 43.75 26.25 43.0117 26.25 42.1094L26.25 36.6406C26.25 35.7383 26.9883 35 27.8906 35H33.3594C34.2617 35 35 35.7383 35 36.6406L35 42.1094C35 43.0117 34.2617 43.75 33.3594 43.75ZM46.4844 43.75L41.0156 43.75C40.1133 43.75 39.375 43.0117 39.375 42.1094L39.375 36.6406C39.375 35.7383 40.1133 35 41.0156 35L46.4844 35C47.3867 35 48.125 35.7383 48.125 36.6406L48.125 42.1094C48.125 43.0117 47.3867 43.75 46.4844 43.75ZM33.3594 56.875H27.8906C26.9883 56.875 26.25 56.1367 26.25 55.2344L26.25 49.7656C26.25 48.8633 26.9883 48.125 27.8906 48.125H33.3594C34.2617 48.125 35 48.8633 35 49.7656L35 55.2344C35 56.1367 34.2617 56.875 33.3594 56.875ZM20.2344 56.875L14.7656 56.875C13.8633 56.875 13.125 56.1367 13.125 55.2344L13.125 49.7656C13.125 48.8633 13.8633 48.125 14.7656 48.125L20.2344 48.125C21.1367 48.125 21.875 48.8633 21.875 49.7656L21.875 55.2344C21.875 56.1367 21.1367 56.875 20.2344 56.875ZM46.4844 56.875L41.0156 56.875C40.1133 56.875 39.375 56.1367 39.375 55.2344L39.375 49.7656C39.375 48.8633 40.1133 48.125 41.0156 48.125L46.4844 48.125C47.3867 48.125 48.125 48.8633 48.125 49.7656L48.125 55.2344C48.125 56.1367 47.3867 56.875 46.4844 56.875Z" fill="#00D8D8"/>
</g>
<defs>
<clipPath id="clip0_10025_108738">
<rect width="61.25" height="70" fill="white"/>
</clipPath>
</defs>
</svg>
