<svg width="61" height="70" viewBox="0 0 61 70" fill="none" xmlns="http://www.w3.org/2000/svg">
<g clip-path="url(#clip0_10025_108740)">
<path fill-rule="evenodd" clip-rule="evenodd" d="M36.9898 0.48464L58.3088 12.0562V12.0548C59.314 12.6173 60.0608 13.5491 60.391 14.6526C60.7211 15.7562 60.6088 16.945 60.0776 17.9671L52.663 31.7356C54.1801 32.0721 55.3594 33.5098 55.3594 35.1144L55.3594 44.9966H56.7917C56.9695 44.9946 57.146 45.0282 57.3106 45.0955C57.4753 45.1627 57.6248 45.2623 57.7504 45.3882C57.876 45.5142 57.9751 45.664 58.0418 45.8289C58.1086 45.9937 58.1417 46.1703 58.1392 46.3481L58.1392 56.4012C58.1417 56.579 58.1086 56.7556 58.0418 56.9204C57.9751 57.0853 57.876 57.2351 57.7504 57.361C57.6248 57.487 57.4753 57.5866 57.3106 57.6538C57.146 57.7211 56.9695 57.7547 56.7917 57.7527H55.3594L55.3594 66.5364C55.3594 68.4789 53.8423 70 51.9038 70L3.45438 70C2.99871 70.0045 2.54673 69.918 2.12499 69.7454C1.70324 69.5728 1.32023 69.3177 0.998449 68.995C0.676666 68.6724 0.422598 68.2887 0.251165 67.8664C0.079732 67.4442 -0.00560982 66.992 0.00015133 66.5364L0.00015133 28.9491C-0.00542905 28.4935 0.0800463 28.0415 0.25156 27.6194C0.423074 27.1973 0.677171 26.8138 0.998936 26.4913C1.3207 26.1688 1.70365 25.9138 2.12531 25.7413C2.54696 25.5688 2.99883 25.4822 3.45438 25.4868L18.6215 25.4868L31.0923 2.25752C32.188 0.230217 34.9678 -0.613821 36.9898 0.48464ZM43.1406 6.9052L29.8282 31.6521L26.0361 31.6521L40.2771 5.38464L43.1406 6.9052ZM35.7271 2.84983C34.9678 2.42714 33.9569 2.76502 33.5355 3.52426V3.52695L18.3684 31.6521L23.0032 31.6521L37.8325 4.03176L35.7271 2.84983ZM3.37092 28.1912C2.94823 28.1912 2.61169 28.6125 2.61169 28.8669L2.61169 31.6535C2.86477 31.57 3.11784 31.57 3.37092 31.57L15.2507 31.57L17.1044 28.1912L3.37092 28.1912ZM51.8203 67.2983C52.2417 67.2983 52.5782 66.9604 52.5782 66.5377L52.5782 57.7527L47.3538 57.7527C46.2798 57.7509 45.2504 57.3226 44.4921 56.562C43.7337 55.8014 43.3085 54.7708 43.31 53.6968L43.31 49.0525C43.31 46.8556 45.0788 44.9979 47.3538 44.9979H52.4948L52.4948 35.1158C52.4948 34.6931 52.1569 34.3552 51.7355 34.3552L3.37092 34.3552C2.94823 34.3552 2.61169 34.6931 2.61169 35.1158L2.61169 66.5377C2.61116 66.6376 2.63042 66.7367 2.66837 66.8291C2.70632 66.9215 2.7622 67.0055 2.83279 67.0762C2.90338 67.1469 2.98728 67.203 3.07964 67.2411C3.17201 67.2792 3.271 67.2986 3.37092 67.2983L51.8203 67.2983ZM55.3594 47.7023L47.3538 47.7023C47.1759 47.7003 46.9995 47.734 46.8348 47.8012C46.6702 47.8685 46.5207 47.968 46.3951 48.094C46.2695 48.2199 46.1704 48.3698 46.1036 48.5346C46.0369 48.6995 46.0038 48.876 46.0063 49.0539L46.0063 53.6994C46.0038 53.8773 46.0369 54.0538 46.1036 54.2187C46.1704 54.3835 46.2695 54.5334 46.3951 54.6593C46.5207 54.7853 46.6702 54.8848 46.8348 54.9521C46.9995 55.0194 47.1759 55.053 47.3538 55.051L55.3594 55.051L55.3594 47.7023ZM56.5257 18.6799L57.6344 16.6196V16.6183C58.0571 15.8591 57.804 14.8441 56.9613 14.5075L45.5028 8.25733L32.8625 31.6535L49.544 31.6535L53.8486 23.6545C53.2403 24.0181 52.5316 24.2308 51.7733 24.2308C51.1366 24.2308 50.4985 24.0558 49.952 23.7946L49.2224 23.4446C48.311 23.0085 47.5827 22.2237 47.3095 21.2639C46.9447 20.3027 47.1278 19.2554 47.5827 18.3831L48.4941 16.7246C49.4956 14.9787 51.9564 14.28 53.7791 15.2398L54.506 15.5898C55.3827 16.0562 56.044 16.8449 56.3501 17.7895C56.4445 18.0806 56.5028 18.3795 56.5257 18.6799ZM52.5931 21.0014L53.5045 19.3429C53.6862 18.8193 53.5045 18.2956 53.1397 17.9469L52.4114 17.597C52.2297 17.5095 52.1381 17.5095 51.9564 17.5095C51.5916 17.5095 51.2268 17.772 51.0451 18.0345L50.1337 19.6916C49.952 19.8666 49.952 20.1291 50.0422 20.3902C50.1337 20.5639 50.3154 20.8264 50.4985 20.9139L51.2268 21.3514C51.6818 21.6125 52.3199 21.4375 52.5931 21.0014Z" fill="#00D8D8"/>
</g>
<defs>
<clipPath id="clip0_10025_108740">
<rect width="60.5769" height="70" fill="white"/>
</clipPath>
</defs>
</svg>
