<svg width="70" height="68" viewBox="0 0 70 68" fill="none" xmlns="http://www.w3.org/2000/svg">
<g clip-path="url(#clip0_10025_108739)">
<path d="M1.00981 22.0368C0.878394 22.0356 0.748025 22.0604 0.626151 22.1095C0.504277 22.1587 0.393286 22.2314 0.299515 22.3235C0.205744 22.4156 0.131029 22.5253 0.0796384 22.6462C0.0282475 22.7672 0.00118624 22.8971 0 23.0285L0 50.8574C0 51.4057 0.449815 51.8517 1.00722 51.8517L41.0667 51.8517C41.6241 51.8517 42.0778 51.407 42.0778 50.8574C42.0766 50.7258 42.0495 50.5957 41.998 50.4746C41.9466 50.3535 41.8718 50.2437 41.7779 50.1515C41.684 50.0593 41.5729 49.9865 41.4508 49.9372C41.3288 49.888 41.1983 49.8632 41.0667 49.8644L2.02093 49.8644L2.02093 24.0241L58.9076 24.0241L58.9076 26.5091C58.9076 27.0574 59.3587 27.502 59.9148 27.502H59.9174C60.4748 27.502 60.9272 27.06 60.9272 26.5117L60.9272 23.0311C60.9264 22.8997 60.8996 22.7697 60.8486 22.6486C60.7975 22.5275 60.7231 22.4177 60.6295 22.3254C60.536 22.233 60.4252 22.16 60.3035 22.1105C60.1817 22.061 60.0514 22.036 59.92 22.0368L1.00981 22.0368Z" fill="#00D8D8"/>
<path d="M52.3756 17.3961L6.11463 6.50721C5.98735 6.47755 5.85535 6.4742 5.72673 6.49739C5.59811 6.52057 5.47558 6.56979 5.36667 6.64203C5.14203 6.79394 4.98534 7.02733 4.92981 7.29277L2.61593 18.1817C2.49796 18.7404 2.835 19.2952 3.36907 19.4196C3.90444 19.5441 4.43333 19.1915 4.55259 18.6315L6.6487 8.75758L51.9413 19.4183C52.0126 19.4359 52.0857 19.4446 52.1591 19.4443C52.7061 19.443 53.1494 18.9776 53.1481 18.4046C53.1513 18.174 53.0768 17.9491 52.9367 17.7659C52.7966 17.5828 52.5989 17.4521 52.3756 17.3948V17.3961Z" fill="#00D8D8"/>
<path d="M46.0743 11.135L19.1502 0.0736934C18.9252 -0.0193373 18.6735 -0.0244652 18.445 0.059326C18.2164 0.143117 18.0276 0.309713 17.9161 0.526101L15.6722 4.95036C15.612 5.06036 15.5744 5.18123 15.5613 5.30593C15.5483 5.43064 15.5603 5.55669 15.5965 5.67673C15.6327 5.79677 15.6924 5.90842 15.7722 6.00515C15.8519 6.10188 15.9502 6.18178 16.0611 6.24018C16.1771 6.30196 16.3044 6.33959 16.4354 6.35079C16.5663 6.36199 16.6982 6.34652 16.823 6.30533C16.9478 6.26413 17.0629 6.19806 17.1614 6.11111C17.26 6.02416 17.3399 5.91813 17.3963 5.79943V5.80203L19.237 2.1698L45.3315 12.8902C45.8228 13.0911 46.3867 12.863 46.5915 12.3781C46.6399 12.2626 46.6649 12.1385 46.665 12.0132C46.6651 11.8879 46.6403 11.7638 46.5921 11.6482C46.5438 11.5325 46.4731 11.4276 46.384 11.3395C46.2949 11.2514 46.1892 11.1819 46.073 11.135H46.0743Z" fill="#00D8D8"/>
<path d="M48.2222 27.2221L38.6296 27.2221C38.0567 27.2221 37.5926 27.8029 37.5926 28.5184C37.5926 29.234 38.0567 29.8147 38.6296 29.8147L48.2222 29.8147C48.7952 29.8147 49.2593 29.234 49.2593 28.5184C49.2593 27.8029 48.7952 27.2221 48.2222 27.2221Z" fill="#00D8D8"/>
<path d="M29.3832 36.1523C29.3832 36.2391 29.5867 36.44 29.9224 36.44H31.0035C32.4204 36.3674 33.6259 37.5276 33.7037 39.0391C33.6493 40.3289 32.7419 41.3919 31.5428 41.5734V41.6252C31.5428 42.2617 31.0593 42.7776 30.463 42.7776C29.8667 42.7776 29.3832 42.2617 29.3832 41.6252H28.302C27.7057 41.6252 27.2222 41.1093 27.2222 40.4741C27.2222 39.8363 27.7057 39.3204 28.302 39.3204H31.0035C31.3393 39.3204 31.5428 39.1208 31.5428 39.0326C31.5428 38.9458 31.3393 38.7449 31.0035 38.7449H29.9224C28.5056 38.8174 27.3 37.6573 27.2222 36.1458C27.2767 34.856 28.1841 33.793 29.3832 33.6115V33.5597C29.3832 32.9232 29.8667 32.4073 30.463 32.4073C31.0593 32.4073 31.5428 32.9232 31.5428 33.5597H32.6239C33.2202 33.5597 33.7037 34.0756 33.7037 34.7108C33.7037 35.3486 33.2202 35.8645 32.6239 35.8645H29.9224C29.5867 35.8645 29.3832 36.0641 29.3832 36.1523Z" fill="#00D8D8"/>
<path fill-rule="evenodd" clip-rule="evenodd" d="M29.8148 27.2221C27.0644 27.2221 24.4267 28.3147 22.4819 30.2595C20.537 32.2043 19.4444 34.8421 19.4444 37.5925C19.4472 40.342 20.5407 42.9782 22.4849 44.9224C24.4291 46.8666 27.0653 47.9601 29.8148 47.9629C32.5652 47.9629 35.203 46.8703 37.1478 44.9254C39.0926 42.9806 40.1852 40.3429 40.1852 37.5925C40.1852 34.8421 39.0926 32.2043 37.1478 30.2595C35.203 28.3147 32.5652 27.2221 29.8148 27.2221ZM29.8148 46.0767C27.5647 46.0767 25.4066 45.1829 23.8155 43.5918C22.2244 42.0007 21.3306 39.8426 21.3306 37.5925C21.3333 35.3432 22.2281 33.1867 23.8186 31.5962C25.4091 30.0057 27.5655 29.111 29.8148 29.1082C30.929 29.1082 32.0322 29.3277 33.0616 29.754C34.091 30.1804 35.0263 30.8054 35.8141 31.5932C36.6019 32.381 37.2269 33.3163 37.6533 34.3457C38.0796 35.3751 38.2991 36.4783 38.2991 37.5925C38.2991 38.7067 38.0796 39.8099 37.6533 40.8393C37.2269 41.8686 36.6019 42.8039 35.8141 43.5918C35.0263 44.3796 34.091 45.0045 33.0616 45.4309C32.0322 45.8573 30.929 46.0767 29.8148 46.0767Z" fill="#00D8D8"/>
<path fill-rule="evenodd" clip-rule="evenodd" d="M57.037 29.8147C50.7915 29.8147 44.0741 31.286 44.0741 34.5138L44.0741 62.7082C44.0741 65.936 50.7915 67.4073 57.037 67.4073C63.2826 67.4073 70 65.936 70 62.7082L70 34.5138C70 31.286 63.2826 29.8147 57.037 29.8147ZM67.6433 62.6901C67.4657 63.3421 63.9307 65.0584 57.037 65.0584C50.1433 65.0584 46.6083 63.3421 46.4307 62.7082V60.861C48.9391 62.121 53.0807 62.7082 57.037 62.7082C60.9933 62.7082 65.1363 62.1145 67.6433 60.8597V62.6901ZM67.6433 57.991C67.4657 58.643 63.9307 60.3593 57.037 60.3593C50.1433 60.3593 46.6083 58.643 46.4307 58.0092V56.1619C48.9391 57.4219 53.0807 58.0092 57.037 58.0092C60.9933 58.0092 65.1363 57.4154 67.6433 56.1606V57.991ZM67.6433 53.2919C67.4657 53.944 63.9307 55.6603 57.037 55.6603C50.1433 55.6603 46.6083 53.944 46.4307 53.3101V51.4629C48.9391 52.7229 53.0807 53.3101 57.037 53.3101C60.9933 53.3101 65.1363 52.7164 67.6433 51.4616V53.2919ZM67.6433 48.5929C67.4657 49.2449 63.9307 50.9612 57.037 50.9612C50.1433 50.9612 46.6083 49.2449 46.4307 48.611V46.7638C48.9391 48.0238 53.0807 48.611 57.037 48.611C60.9933 48.611 65.1363 48.0173 67.6433 46.7625V48.5929ZM67.6433 43.8938C67.4657 44.5458 63.9307 46.2621 57.037 46.2621C50.1433 46.2621 46.6083 44.5458 46.4307 43.9119V42.0647C48.9391 43.3182 53.0807 43.9119 57.037 43.9119C60.9933 43.9119 65.1363 43.3182 67.6433 42.0634V43.8938ZM67.6433 39.1947C67.4657 39.8467 63.9307 41.5617 57.037 41.5617C50.1433 41.5617 46.6083 39.8467 46.4307 39.2129L46.4307 37.3656C48.9391 38.6191 53.0807 39.2129 57.037 39.2129C60.9933 39.2129 65.1363 38.6191 67.6433 37.3643V39.1947ZM57.037 36.8627C50.1537 36.8627 46.6213 35.1529 46.4307 34.5345V34.528C46.6213 33.8734 50.1537 32.1649 57.037 32.1649C63.8724 32.1649 67.4074 33.8501 67.6433 34.5138C67.4074 35.1788 63.8711 36.864 57.037 36.864V36.8627Z" fill="#00D8D8"/>
<path d="M11.1948 45.9562L19.7685 45.9562V45.9549C19.8982 45.9569 20.0263 45.9844 20.1454 46.036C20.2644 46.0875 20.3722 46.162 20.4625 46.2551C20.5527 46.3483 20.6238 46.4583 20.6715 46.579C20.7193 46.6996 20.7428 46.8285 20.7407 46.9582C20.7407 47.5117 20.3052 47.9615 19.7685 47.9615L10.7657 47.9615C10.6297 47.9611 10.4953 47.9318 10.3715 47.8754C10.2477 47.8191 10.1373 47.7371 10.0476 47.6349L5.43926 42.4315C5.27593 42.2462 5.18519 42.005 5.18519 41.7549L5.18519 33.4262C5.18446 33.1273 5.28808 32.8375 5.47815 32.6069L10.5441 27.506C10.6331 27.4156 10.7393 27.3438 10.8563 27.2949C10.9734 27.2459 11.099 27.2207 11.2259 27.2208L19.7685 27.2208C19.8982 27.2228 20.0263 27.2504 20.1454 27.3019C20.2644 27.3534 20.3722 27.4279 20.4625 27.5211C20.5527 27.6142 20.6238 27.7243 20.6715 27.8449C20.7193 27.9655 20.7428 28.0944 20.7407 28.2241C20.7407 28.7789 20.3052 29.2287 19.7685 29.2287L11.62 29.2287L7.13093 33.7528L7.13093 41.3647L11.1948 45.9562Z" fill="#00D8D8"/>
</g>
<defs>
<clipPath id="clip0_10025_108739">
<rect width="70" height="67.4074" fill="white"/>
</clipPath>
</defs>
</svg>
