<svg width="79" height="70" viewBox="0 0 79 70" fill="none" xmlns="http://www.w3.org/2000/svg">
<g clip-path="url(#clip0_10025_108705)">
<path d="M37.8 47.9347C37.8 46.6763 38.86 45.6521 40.1625 45.6521C41.465 45.6521 42.525 46.6763 42.525 47.9347C42.525 49.1932 41.465 50.2173 40.1625 50.2173C38.86 50.2173 37.8 49.1932 37.8 47.9347Z" fill="#00D8D8"/>
<path fill-rule="evenodd" clip-rule="evenodd" d="M48.3525 24.853L51.5356 27.9284C51.8167 28.2004 51.9746 28.569 51.9746 28.9533C51.9746 29.3377 51.8167 29.7063 51.5356 29.9782L48.3525 33.0521C48.2134 33.1874 48.048 33.2948 47.8659 33.368C47.6837 33.4413 47.4883 33.479 47.291 33.479C47.0936 33.479 46.8982 33.4413 46.716 33.368C46.5339 33.2948 46.3685 33.1874 46.2294 33.0521L43.0479 29.9782L40.3956 32.5423C40.2061 32.7252 39.9694 32.8557 39.71 32.9204C39.4507 32.9851 39.1782 32.9815 38.9207 32.9101C38.6633 32.8387 38.4303 32.702 38.246 32.5142C38.0617 32.3265 37.9327 32.0945 37.8725 31.8423L34.6878 18.515C34.6308 18.2754 34.6378 18.0257 34.7082 17.7895C34.7785 17.5532 34.9098 17.3381 35.0898 17.1643C35.2698 16.9906 35.4925 16.8639 35.7371 16.7962C35.9817 16.7284 36.2401 16.7219 36.488 16.7771L50.2803 19.851C50.5413 19.9092 50.7814 20.0338 50.9757 20.2119C51.17 20.39 51.3115 20.6151 51.3854 20.8639C51.4593 21.1126 51.463 21.3759 51.3961 21.6265C51.3292 21.877 51.1941 22.1058 51.0048 22.2889L48.3525 24.853ZM44.1095 26.9028L47.291 29.9782L48.3525 28.9526L45.1694 25.8771C44.8883 25.6052 44.7304 25.2366 44.7304 24.8522C44.7304 24.4679 44.8883 24.0993 45.1694 23.8273L46.9681 22.0895L38.1528 20.1234L40.1877 28.6406L41.9864 26.9028C42.1254 26.7675 42.2908 26.6602 42.473 26.5869C42.6552 26.5136 42.8506 26.4759 43.0479 26.4759C43.2452 26.4759 43.4406 26.5136 43.6228 26.5869C43.805 26.6602 43.9704 26.7675 44.1095 26.9028Z" fill="#00D8D8"/>
<path d="M31.0385 11.098L32.6135 12.6197C32.9088 12.9051 33.0747 13.2921 33.0747 13.6956C33.0747 14.0991 32.9088 14.4861 32.6135 14.7715C32.4676 14.9133 32.2941 15.0258 32.103 15.1026C31.9119 15.1794 31.707 15.2189 31.5 15.2189C31.293 15.2189 31.0881 15.1794 30.897 15.1026C30.7059 15.0258 30.5324 14.9133 30.3865 14.7715L28.8115 13.2497C28.5246 12.9627 28.3658 12.5783 28.3694 12.1793C28.373 11.7803 28.5386 11.3987 28.8307 11.1165C29.1227 10.8344 29.5177 10.6743 29.9307 10.6709C30.3436 10.6674 30.7415 10.8208 31.0385 11.098Z" fill="#00D8D8"/>
<path d="M28.161 16.7391L30.1172 16.7391C30.8826 16.7391 31.5016 17.4208 31.5016 18.2608C31.5016 19.1008 30.8826 19.7826 30.1172 19.7826L28.161 19.7826C27.3956 19.7826 26.7766 19.1008 26.7766 18.2608C26.7766 17.4208 27.3956 16.7391 28.161 16.7391Z" fill="#00D8D8"/>
<path d="M31.5 22.8264C31.9176 22.8264 32.3182 22.9866 32.6135 23.2719C32.9088 23.5573 33.0747 23.9443 33.0747 24.3478C33.0747 24.7513 32.9088 25.1383 32.6135 25.4236L31.0385 26.9454C30.7415 27.2226 30.3436 27.376 29.9307 27.3725C29.5177 27.369 29.1227 27.209 28.8307 26.9268C28.5386 26.6447 28.373 26.263 28.3694 25.864C28.3658 25.465 28.5246 25.0807 28.8115 24.7936L30.3865 23.2719C30.6818 22.9866 31.0824 22.8264 31.5 22.8264Z" fill="#00D8D8"/>
<path d="M42.525 10.6524C42.9426 10.6524 43.3432 10.8127 43.6385 11.098C43.9338 11.3834 44.0997 11.7704 44.0997 12.1739C44.0997 12.5774 43.9338 12.9644 43.6385 13.2497L42.0635 14.7715C41.7665 15.0487 41.3686 15.2021 40.9557 15.1986C40.5427 15.1951 40.1477 15.0351 39.8557 14.7529C39.5636 14.4708 39.398 14.0891 39.3944 13.6901C39.3908 13.2911 39.5496 12.9067 39.8365 12.6197L41.4115 11.098C41.7068 10.8127 42.1074 10.6524 42.525 10.6524Z" fill="#00D8D8"/>
<path d="M34.65 11.9897C34.65 11.2502 35.3556 10.6521 36.225 10.6521C37.0944 10.6521 37.8 11.2502 37.8 11.9913V13.8782C37.8 14.6178 37.0944 15.2158 36.225 15.2158C35.3556 15.2158 34.65 14.6178 34.65 13.8782V11.9897Z" fill="#00D8D8"/>
<path d="M17.0588 35.6771C17.1746 35.8425 17.2544 36.0289 17.2935 36.225C17.3142 36.3226 17.3247 36.422 17.325 36.5217C17.3254 36.8226 17.2327 37.1167 17.0588 37.3663C16.9455 37.5337 16.7975 37.6767 16.6241 37.7863C16.3661 37.9549 16.0615 38.0445 15.75 38.0434C15.4386 38.0438 15.1342 37.9542 14.8759 37.7863C14.6156 37.6204 14.4135 37.3822 14.2963 37.103C14.2162 36.919 14.175 36.7213 14.175 36.5217C14.1771 36.2212 14.2695 35.9277 14.4412 35.6771C14.5545 35.5096 14.7025 35.3666 14.8759 35.2571C15.0471 35.1449 15.2398 35.0669 15.4426 35.0277C15.6455 34.9885 15.8544 34.9889 16.0571 35.0289C16.2599 35.068 16.4526 35.1455 16.6241 35.2571C16.7975 35.3666 16.9455 35.5096 17.0588 35.6771Z" fill="#00D8D8"/>
<path fill-rule="evenodd" clip-rule="evenodd" d="M8.3286 0L70.4214 0C75.0141 0 78.75 3.675 78.7484 8.19152L78.7484 46.9152C78.7484 51.4317 75.0125 55.1067 70.4198 55.1067L50.3071 55.1067L52.731 67.022L60.5777 67.022C60.9826 67.0256 61.3694 67.1844 61.6532 67.4634C61.937 67.7425 62.0946 68.119 62.0912 68.5102C62.0931 68.7041 62.0554 68.8964 61.9804 69.0761C61.9053 69.2559 61.7944 69.4197 61.6538 69.558C61.5133 69.6963 61.3459 69.8066 61.1612 69.8824C60.9766 69.9583 60.7783 69.9982 60.5777 70L18.1723 70C17.336 70 16.6588 69.332 16.6588 68.5102C16.6571 68.3164 16.695 68.1241 16.7702 67.9444C16.8455 67.7647 16.9566 67.6011 17.0973 67.4629C17.238 67.3247 17.4055 67.2146 17.5902 67.139C17.775 67.0633 17.9733 67.0236 18.1739 67.022L26.0174 67.022L28.4414 55.1067L8.3286 55.1067C3.7359 55.1067 0 51.4317 0 46.9152L0 8.19152C0 3.675 3.7359 0 8.3286 0ZM31.5284 55.1067L29.106 67.022L49.6409 67.022L47.2185 55.1067L31.5284 55.1067ZM70.4214 52.1272C73.343 52.1272 75.7213 49.7898 75.7213 46.9152V43.1915L3.02873 43.1915L3.02873 46.9152C3.02873 49.7898 5.40698 52.1272 8.3286 52.1272L70.4214 52.1272ZM3.02873 40.2135L75.7213 40.2135L75.7213 8.19304C75.7213 5.31848 73.343 2.97957 70.4214 2.97957L8.3286 2.97957C5.40698 2.97957 3.02873 5.31848 3.02873 8.19304L3.02873 34.2543L12.1165 34.2543C12.3171 34.2563 12.5154 34.2965 12.6999 34.3725C12.8845 34.4485 13.0518 34.5589 13.1922 34.6974C13.3326 34.8359 13.4434 34.9998 13.5182 35.1796C13.5931 35.3595 13.6306 35.5518 13.6285 35.7457C13.6318 36.1366 13.4745 36.5129 13.191 36.7919C12.9076 37.0709 12.5211 37.2299 12.1165 37.2339L3.02873 37.2339L3.02873 40.2135Z" fill="#00D8D8"/>
</g>
<defs>
<clipPath id="clip0_10025_108705">
<rect width="78.75" height="70" fill="white"/>
</clipPath>
</defs>
</svg>
